<?xml version="1.0" standalone="no"?>
<!DOCTYPE svg PUBLIC "-//W3C//DTD SVG 20010904//EN"
 "http://www.w3.org/TR/2001/REC-SVG-20010904/DTD/svg10.dtd">
<svg version="1.0" xmlns="http://www.w3.org/2000/svg"
 width="200.000000pt" height="200.000000pt" viewBox="0 0 200.000000 200.000000"
 preserveAspectRatio="xMidYMid meet">
<metadata>
Created by potrace 1.16, written by Peter Selinger 2001-2019
</metadata>
<g transform="translate(0.000000,200.000000) scale(0.100000,-0.100000)"
fill="#000000" stroke="none">
<path d="M921 1660 c-144 -22 -326 -140 -256 -166 8 -3 32 8 54 25 54 43 138
80 211 93 113 21 246 -17 348 -99 68 -56 103 -22 37 35 -101 89 -254 133 -394
112z"/>
<path d="M384 1513 c-10 -11 -14 -40 -14 -112 0 -93 2 -100 30 -139 l30 -41 2
-213 3 -212 28 -16 c24 -13 30 -13 55 0 l27 16 3 212 2 213 30 41 c28 39 30
46 30 137 0 53 -5 103 -10 111 -13 21 -195 24 -216 3z m71 -168 c18 0 20 8 23
68 2 37 7 67 12 67 5 0 10 -30 12 -67 3 -60 5 -68 23 -68 18 0 21 8 25 70 4
48 8 64 14 52 5 -9 6 -46 4 -82 -3 -51 -9 -70 -28 -90 -25 -26 -25 -30 -30
-248 -4 -188 -7 -222 -20 -222 -13 0 -16 34 -20 222 -5 218 -5 222 -30 248
-19 20 -25 39 -28 90 -2 36 -1 73 4 82 6 12 10 -4 14 -52 4 -62 7 -70 25 -70z"/>
<path d="M1445 1520 c-12 -4 -26 -14 -33 -22 -20 -25 -40 -129 -47 -248 -6
-109 -5 -116 14 -134 19 -18 21 -30 21 -156 0 -119 3 -141 18 -160 23 -28 80
-30 99 -4 18 25 19 683 1 706 -17 21 -48 29 -73 18z m45 -370 c0 -245 -3 -310
-13 -319 -8 -6 -17 -8 -20 -4 -4 3 -7 70 -7 148 0 132 -1 143 -21 161 -20 18
-21 25 -15 121 9 162 32 237 62 212 11 -9 14 -71 14 -319z"/>
<path d="M883 1491 c-59 -27 -115 -88 -156 -169 -44 -88 -61 -166 -55 -252 6
-81 34 -137 90 -183 61 -49 80 -57 139 -57 47 0 55 3 88 38 21 21 43 59 52 87
l15 50 64 5 c36 3 79 13 97 23 66 35 108 124 96 202 -14 94 -97 205 -186 250
-65 32 -179 35 -244 6z m227 -54 c94 -48 142 -156 104 -233 -31 -62 -63 -78
-160 -83 -78 -3 -88 -1 -122 23 -44 30 -94 34 -147 12 -35 -15 -47 -42 -22
-52 7 -2 31 1 52 9 36 12 75 13 75 1 0 -3 -16 -18 -35 -35 -19 -17 -35 -37
-35 -45 0 -27 30 -27 58 -2 15 14 38 31 51 38 21 11 23 10 17 -5 -3 -10 -11
-37 -17 -61 -12 -46 -56 -94 -87 -94 -33 0 -79 38 -101 82 -39 82 -21 223 44
334 32 54 42 47 52 -36 5 -40 10 -50 24 -50 25 0 34 40 20 95 -14 56 -14 67 2
88 35 49 145 56 227 14z"/>
<path d="M989 1367 c-47 -36 -52 -105 -10 -148 57 -56 154 -26 162 51 7 69
-28 110 -93 110 -24 0 -50 -6 -59 -13z"/>
<path d="M614 895 c-7 -18 19 -53 74 -99 143 -119 362 -140 536 -51 71 36 120
80 113 99 -10 24 -33 19 -80 -17 -85 -65 -139 -82 -262 -82 -103 0 -114 2
-178 32 -37 18 -91 55 -121 83 -55 52 -73 60 -82 35z"/>
<path d="M105 461 l0 -121 43 0 c31 0 42 4 42 15 0 8 -9 15 -20 15 -16 0 -20
7 -20 35 0 33 2 35 33 35 41 0 67 26 67 67 0 42 -30 66 -93 71 l-52 4 0 -121z"/>
<path d="M895 460 l0 -120 43 0 c31 0 42 4 42 15 0 8 -9 15 -20 15 -16 0 -20
7 -20 35 0 32 2 35 31 35 43 0 66 15 74 49 12 56 -32 91 -114 91 l-36 0 0
-120z"/>
<path d="M1290 450 c-20 -20 -26 -65 -12 -86 16 -24 50 -33 105 -27 39 4 57
10 57 19 0 8 -7 14 -15 14 -11 0 -15 12 -15 49 l0 48 -50 2 c-38 0 -55 -4 -70
-19z"/>
<path d="M1450 449 c0 -10 5 -19 10 -19 6 0 10 -13 10 -30 0 -16 -4 -30 -10
-30 -5 0 -10 -7 -10 -15 0 -11 11 -15 40 -15 29 0 40 4 40 15 0 8 -4 15 -10
15 -14 0 -13 33 2 48 7 7 20 12 30 12 13 0 18 -8 18 -30 0 -20 -5 -30 -15 -30
-8 0 -15 -7 -15 -15 0 -11 12 -15 45 -15 33 0 45 4 45 15 0 8 -4 15 -10 15 -5
0 -10 17 -10 39 0 21 -6 43 -12 49 -7 5 -43 10 -80 10 -61 0 -68 -2 -68 -19z"/>
<path d="M1762 454 c-15 -10 -22 -25 -22 -47 0 -37 7 -50 36 -65 28 -15 134
-4 134 14 0 8 -7 14 -15 14 -11 0 -15 12 -15 49 l0 48 -48 1 c-29 1 -57 -5
-70 -14z"/>
</g>
</svg>
